# xmcd
# Track frame offsets:
# 150
# 14954
# 30636
# 43080
# 55541
# 72789
# 86887
# 103802
# 130647
# 142745
#
# Disc length: 2069 seconds
# Revision: 0
# Processed by: cddbd v1.4PL0 Copyright (c) Steve Scherf et al.
# Submitted via: VisiTrax 2.9.5.180 - For more info visit www.synapsa.com
#
DISCID=8508130a
DTITLE=B Jeff Stone - Something's going on
DYEAR=1900
DGENRE=
TTITLE0=There's something going on
TTITLE1=1443
TTITLE2=The other side of town
TTITLE3=Patricia's song
TTITLE4=Starlit angel
TTITLE5=When love is gone
TTITLE6=Will you visit me on sunday
TTITLE7=Honey do
TTITLE8=Tonight my lady learns to love
TTITLE9=Rather be alone
EXTD=
EXTT0=
EXTT1=
EXTT2=
EXTT3=
EXTT4=
EXTT5=
EXTT6=
EXTT7=
EXTT8=
EXTT9=
PLAYORDER=
